<mxfile host="app.diagrams.net" agent="Mozilla/5.0 (Windows NT 10.0; Win64; x64) AppleWebKit/537.36 (KHTML, like Gecko) Chrome/138.0.0.0 Safari/537.36" version="28.0.7">
  <diagram name="Page-1" id="14WSpKE4V9XbBTA1UkID">
    <mxGraphModel dx="1367" dy="556" grid="1" gridSize="10" guides="1" tooltips="1" connect="1" arrows="1" fold="1" page="1" pageScale="1" pageWidth="850" pageHeight="1100" math="0" shadow="0">
      <root>
        <mxCell id="0" />
        <mxCell id="1" parent="0" />
        <mxCell id="nKVs6_15rnYLYa3qSQOT-1" value="" style="rounded=0;whiteSpace=wrap;html=1;" vertex="1" parent="1">
          <mxGeometry x="158" y="40" width="362" height="430" as="geometry" />
        </mxCell>
        <mxCell id="nKVs6_15rnYLYa3qSQOT-11" style="edgeStyle=orthogonalEdgeStyle;rounded=0;orthogonalLoop=1;jettySize=auto;html=1;exitX=0.25;exitY=1;exitDx=0;exitDy=0;entryX=0.25;entryY=0;entryDx=0;entryDy=0;" edge="1" parent="1" source="nKVs6_15rnYLYa3qSQOT-4" target="nKVs6_15rnYLYa3qSQOT-6">
          <mxGeometry relative="1" as="geometry" />
        </mxCell>
        <mxCell id="nKVs6_15rnYLYa3qSQOT-4" value="" style="fillColor=#ffffff;strokeColor=#dddddd;shadow=1;strokeWidth=1;rounded=1;absoluteArcSize=1;arcSize=2;" vertex="1" parent="1">
          <mxGeometry x="265" y="80" width="195" height="60" as="geometry" />
        </mxCell>
        <mxCell id="nKVs6_15rnYLYa3qSQOT-5" value="&lt;font color=&quot;#000000&quot;&gt;DAGS&lt;/font&gt;&lt;br&gt;Cloud Composer" style="editableCssRules=.*;html=1;fontColor=#999999;shape=image;verticalLabelPosition=middle;verticalAlign=middle;labelPosition=right;align=left;spacingLeft=20;part=1;points=[];imageAspect=0;image=data:image/svg+xml,PHN2ZyB4bWxucz0iaHR0cDovL3d3dy53My5vcmcvMjAwMC9zdmciIHhtbG5zOnY9Imh0dHBzOi8vdmVjdGEuaW8vbmFubyIgd2lkdGg9IjE0LjY0MDAwMDM0MzMyMjc1NCIgaGVpZ2h0PSIyMCIgdmlld0JveD0iMCAwIDE0LjY0MDAwMDM0MzMyMjc1NCAyMCI+JiN4YTsJPHN0eWxlIHR5cGU9InRleHQvY3NzIj4mI3hhOwkuc3Qwe2ZpbGw6I2FlY2JmYTt9JiN4YTsJLnN0MXtmaWxsOiM0Mjg1ZjQ7fSYjeGE7CTwvc3R5bGU+JiN4YTsJPHBhdGggY2xhc3M9InN0MCIgZD0iTTAgMGgxNC42M3YzLjk0aC01LjN2NS4zM0g1LjM1VjMuOTZIMHoiLz4mI3hhOwk8cGF0aCBjbGFzcz0ic3QxIiBkPSJNMy45NSAxMC42N2g1LjM0VjIwSDUuMzV2LTUuMzVIMFY1LjM3aDMuOTV6TTE0LjY0IDIwSDEwLjdWNS4zNmgzLjk0eiIvPiYjeGE7CTxwYXRoIGNsYXNzPSJzdDAiIGQ9Ik0wIDE2LjA2aDMuOTJWMjBIMHoiLz4mI3hhOzwvc3ZnPg==;" vertex="1" parent="nKVs6_15rnYLYa3qSQOT-4">
          <mxGeometry width="22" height="30" relative="1" as="geometry">
            <mxPoint x="19" y="15" as="offset" />
          </mxGeometry>
        </mxCell>
        <mxCell id="nKVs6_15rnYLYa3qSQOT-13" style="edgeStyle=orthogonalEdgeStyle;rounded=0;orthogonalLoop=1;jettySize=auto;html=1;exitX=0.25;exitY=1;exitDx=0;exitDy=0;entryX=0.25;entryY=0;entryDx=0;entryDy=0;" edge="1" parent="1" source="nKVs6_15rnYLYa3qSQOT-6" target="nKVs6_15rnYLYa3qSQOT-9">
          <mxGeometry relative="1" as="geometry" />
        </mxCell>
        <mxCell id="nKVs6_15rnYLYa3qSQOT-6" value="" style="rounded=0;whiteSpace=wrap;html=1;" vertex="1" parent="1">
          <mxGeometry x="180" y="190" width="150" height="90" as="geometry" />
        </mxCell>
        <mxCell id="nKVs6_15rnYLYa3qSQOT-7" value="Cloud Data&#xa;Fusion" style="sketch=0;html=1;verticalAlign=top;labelPosition=center;verticalLabelPosition=bottom;align=center;spacingTop=-6;fontSize=11;fontStyle=1;fontColor=#999999;shape=image;aspect=fixed;imageAspect=0;image=data:image/svg+xml,PHN2ZyB4bWxucz0iaHR0cDovL3d3dy53My5vcmcvMjAwMC9zdmciIHhtbG5zOnY9Imh0dHBzOi8vdmVjdGEuaW8vbmFubyIgd2lkdGg9IjM3Ny4wNDk2OTgzMjc3ODkyNiIgaGVpZ2h0PSIzNzcuMjkxNTcwNzE1Nzg5NzYiIHZpZXdCb3g9IjAuMTMxMDAwNTE4Nzk4ODI4MTIgLTAuMTIxMDAwMDA2Nzk0OTI5NSA5OS43NjEwMDE1ODY5MTQwNiA5OS44MjQ5OTY5NDgyNDIxOSI+JiN4YTs8c3R5bGUgdHlwZT0idGV4dC9jc3MiPiYjeGE7CS5zdDB7ZmlsbDojNjY5ZGY2O30mI3hhOwkuc3Qxe2ZpbGw6IzQyODVmNDt9JiN4YTsJLnN0MntmaWxsOiNhZWNiZmE7fSYjeGE7PC9zdHlsZT4mI3hhOwk8cGF0aCBjbGFzcz0ic3QwIiBkPSJNODAuNTkzIDE5LjE4djIwLjE5OWgxOS4yOTlWOS41M2MwLTIuNTM3LS45NzktNC44NDYtMi41OC02LjU2OHptLTkuOTA4IDYxLjIyNUgxOS40MzFMMy40NSA5Ny4zMzdjMS42OTUgMS40NzQgMy45MDggMi4zNjcgNi4zMzEgMi4zNjdoNzAuNTU1YzIuODczIDAgNS40NTMtMS4yNTYgNy4yMjEtMy4yNDh6Ii8+JiN4YTsJPHBhdGggY2xhc3M9InN0MSIgZD0iTTg3LjU3MyA5Ni40MzdjMS41MDEtMS43MDEgMi40MTMtMy45MzUgMi40MTMtNi4zODJWNjAuMjA0SDcwLjY4NXYyMC4yMDF6Ii8+JiN4YTsJPHBhdGggY2xhc3M9InN0MiIgZD0iTTE5LjQzMSA4MC40MDVWMjkuMzRoMjAuNTc4VjEwLjA0SDkuNzgxYy01LjMzIDAtOS42NSA0LjMyMS05LjY1IDkuNjV2NzAuMzY1Yy4wMDEgMi45MDYgMS4yODYgNS41MTMgMy4zMiA3LjI4MXptNzcuODgtNzcuNDQzQzk1LjU1IDEuMDY2IDkzLjAzNi0uMTIgOTAuMjQ0LS4xMjFINTkuOTUxVjE5LjE4aDIwLjY0M3oiLz4mI3hhOzwvc3ZnPg==;" vertex="1" parent="1">
          <mxGeometry x="190" y="199" width="42" height="42" as="geometry" />
        </mxCell>
        <mxCell id="nKVs6_15rnYLYa3qSQOT-8" value="Dataform" style="rounded=1;whiteSpace=wrap;html=1;" vertex="1" parent="1">
          <mxGeometry x="254" y="205" width="60" height="30" as="geometry" />
        </mxCell>
        <mxCell id="nKVs6_15rnYLYa3qSQOT-9" value="" style="fillColor=#ffffff;strokeColor=#dddddd;shadow=1;strokeWidth=1;rounded=1;absoluteArcSize=1;arcSize=2;" vertex="1" parent="1">
          <mxGeometry x="180" y="330" width="130" height="60" as="geometry" />
        </mxCell>
        <mxCell id="nKVs6_15rnYLYa3qSQOT-10" value="BigQuery" style="editableCssRules=.*;html=1;fontColor=#999999;shape=image;verticalLabelPosition=middle;verticalAlign=middle;labelPosition=right;align=left;spacingLeft=20;part=1;points=[];imageAspect=0;image=data:image/svg+xml,PHN2ZyB4bWxucz0iaHR0cDovL3d3dy53My5vcmcvMjAwMC9zdmciIHhtbG5zOnY9Imh0dHBzOi8vdmVjdGEuaW8vbmFubyIgd2lkdGg9IjIwLjAwMTA0NTIyNzA1MDc4IiBoZWlnaHQ9IjIwLjAwMTA0NTIyNzA1MDc4IiBmaWxsLXJ1bGU9ImV2ZW5vZGQiIHZpZXdCb3g9IjAgMCAyMC4wMDEwNDUyMjcwNTA3OCAyMC4wMDEwNDUyMjcwNTA3OCI+JiN4YTsJPHN0eWxlIHR5cGU9InRleHQvY3NzIj4mI3hhOwkuc3Qwe2ZpbGw6I2FlY2JmYTt9JiN4YTsJLnN0MXtmaWxsOiM2NjlkZjY7fSYjeGE7CS5zdDJ7ZmlsbDojNDI4NWY0O30mI3hhOwk8L3N0eWxlPiYjeGE7CTxwYXRoIGNsYXNzPSJzdDAiIGQ9Ik00LjczIDguODN2Mi42M2E0LjkxIDQuOTEgMCAwIDAgMS43MSAxLjc0VjguODN6Ii8+JiN4YTsJPHBhdGggY2xhc3M9InN0MSIgZD0iTTcuODkgNi40MXY3LjUzQTcuNjIgNy42MiAwIDAgMCA5IDE0YTggOCAwIDAgMCAxIDBWNi40MXoiLz4mI3hhOwk8cGF0aCBjbGFzcz0ic3QwIiBkPSJNMTEuNjQgOS44NnYzLjI5YTUgNSAwIDAgMCAxLjctMS44MlY5Ljg2eiIvPiYjeGE7CTxwYXRoIGNsYXNzPSJzdDIiIGQ9Ik0xNS43NCAxNC4zMmwtMS40MiAxLjQyYS40Mi40MiAwIDAgMCAwIC42bDMuNTQgMy41NGEuNDIuNDIgMCAwIDAgLjU5IDBsMS40My0xLjQzYS40Mi40MiAwIDAgMCAwLS41OWwtMy41NC0zLjU0YS40Mi40MiAwIDAgMC0uNiAwIi8+JiN4YTsJPHBhdGggY2xhc3M9InN0MSIgZD0iTTkgMGE5IDkgMCAxIDAgMCAxOEE5IDkgMCAxIDAgOSAwbTAgMTUuNjlhNi42OCA2LjY4IDAgMCAxIC4wMDctMTMuMzYgNi42OCA2LjY4IDAgMCAxIDQuNzI3IDExLjQwM0E2LjY4IDYuNjggMCAwIDEgOSAxNS42OSIvPiYjeGE7PC9zdmc+;" vertex="1" parent="nKVs6_15rnYLYa3qSQOT-9">
          <mxGeometry width="30" height="30" relative="1" as="geometry">
            <mxPoint x="15" y="15" as="offset" />
          </mxGeometry>
        </mxCell>
        <mxCell id="nKVs6_15rnYLYa3qSQOT-14" value="" style="rounded=0;whiteSpace=wrap;html=1;" vertex="1" parent="1">
          <mxGeometry x="160" y="494" width="830" height="480" as="geometry" />
        </mxCell>
        <mxCell id="nKVs6_15rnYLYa3qSQOT-28" style="edgeStyle=orthogonalEdgeStyle;rounded=0;orthogonalLoop=1;jettySize=auto;html=1;exitX=1;exitY=0.5;exitDx=0;exitDy=0;entryX=0;entryY=0.5;entryDx=0;entryDy=0;" edge="1" parent="1" source="nKVs6_15rnYLYa3qSQOT-15" target="nKVs6_15rnYLYa3qSQOT-26">
          <mxGeometry relative="1" as="geometry" />
        </mxCell>
        <mxCell id="nKVs6_15rnYLYa3qSQOT-29" value="Log-Based Metrics" style="edgeLabel;html=1;align=center;verticalAlign=middle;resizable=0;points=[];" vertex="1" connectable="0" parent="nKVs6_15rnYLYa3qSQOT-28">
          <mxGeometry x="0.0069" y="-1" relative="1" as="geometry">
            <mxPoint x="1" y="-11" as="offset" />
          </mxGeometry>
        </mxCell>
        <mxCell id="nKVs6_15rnYLYa3qSQOT-54" style="edgeStyle=orthogonalEdgeStyle;rounded=0;orthogonalLoop=1;jettySize=auto;html=1;exitX=0.25;exitY=1;exitDx=0;exitDy=0;entryX=0.25;entryY=0;entryDx=0;entryDy=0;" edge="1" parent="1" source="nKVs6_15rnYLYa3qSQOT-15" target="nKVs6_15rnYLYa3qSQOT-52">
          <mxGeometry relative="1" as="geometry">
            <Array as="points">
              <mxPoint x="350" y="630" />
              <mxPoint x="264" y="630" />
            </Array>
          </mxGeometry>
        </mxCell>
        <mxCell id="nKVs6_15rnYLYa3qSQOT-55" value="Log Sinks" style="edgeLabel;html=1;align=center;verticalAlign=middle;resizable=0;points=[];" vertex="1" connectable="0" parent="nKVs6_15rnYLYa3qSQOT-54">
          <mxGeometry x="0.6672" y="-3" relative="1" as="geometry">
            <mxPoint as="offset" />
          </mxGeometry>
        </mxCell>
        <mxCell id="nKVs6_15rnYLYa3qSQOT-15" value="" style="fillColor=#ffffff;strokeColor=#dddddd;shadow=1;strokeWidth=1;rounded=1;absoluteArcSize=1;arcSize=2;" vertex="1" parent="1">
          <mxGeometry x="320" y="550" width="120" height="60" as="geometry" />
        </mxCell>
        <mxCell id="nKVs6_15rnYLYa3qSQOT-16" value="Cloud&#xa;Logging" style="editableCssRules=.*;html=1;fontColor=#999999;shape=image;verticalLabelPosition=middle;verticalAlign=middle;labelPosition=right;align=left;spacingLeft=20;part=1;points=[];imageAspect=0;image=data:image/svg+xml,PHN2ZyB4bWxucz0iaHR0cDovL3d3dy53My5vcmcvMjAwMC9zdmciIHhtbG5zOnY9Imh0dHBzOi8vdmVjdGEuaW8vbmFubyIgd2lkdGg9IjIwIiBoZWlnaHQ9IjE5IiB2aWV3Qm94PSIwIDAgMjAgMTkiPiYjeGE7CTxzdHlsZSB0eXBlPSJ0ZXh0L2NzcyI+JiN4YTsJLnN0MHtmaWxsOiM0Mjg1ZjQ7fSYjeGE7CS5zdDF7ZmlsbDojNjY5ZGY2O30mI3hhOwkuc3Qye2ZpbGw6I2FlY2JmYTt9JiN4YTsJPC9zdHlsZT4mI3hhOwk8ZyBjbGFzcz0ic3QwIj4mI3hhOwkJPHBhdGggZD0iTTQgOWg0djJINHptLTIgN2g2djJIMnoiLz4mI3hhOwkJPHBhdGggZD0iTTQgNEgydjEyaDJ6Ii8+JiN4YTsJPC9nPiYjeGE7CTxwYXRoIGNsYXNzPSJzdDEiIGQ9Ik0yMCAxSDd2NGgxM3ptMCA3SDd2NGgxM3ptMCA3SDd2NGgxM3oiLz4mI3hhOwk8cGF0aCBjbGFzcz0ic3QyIiBkPSJNNiAwSDB2Nmg2eiIvPiYjeGE7PC9zdmc+;" vertex="1" parent="nKVs6_15rnYLYa3qSQOT-15">
          <mxGeometry width="30" height="28" relative="1" as="geometry">
            <mxPoint x="15" y="16" as="offset" />
          </mxGeometry>
        </mxCell>
        <mxCell id="nKVs6_15rnYLYa3qSQOT-17" style="edgeStyle=orthogonalEdgeStyle;rounded=0;orthogonalLoop=1;jettySize=auto;html=1;exitX=0.5;exitY=1;exitDx=0;exitDy=0;entryX=0;entryY=0.5;entryDx=0;entryDy=0;" edge="1" parent="1" source="nKVs6_15rnYLYa3qSQOT-9" target="nKVs6_15rnYLYa3qSQOT-15">
          <mxGeometry relative="1" as="geometry" />
        </mxCell>
        <mxCell id="nKVs6_15rnYLYa3qSQOT-25" value="Pipeline Logs &amp;amp; Metrics" style="edgeLabel;html=1;align=center;verticalAlign=middle;resizable=0;points=[];" vertex="1" connectable="0" parent="nKVs6_15rnYLYa3qSQOT-17">
          <mxGeometry x="-0.6226" y="-2" relative="1" as="geometry">
            <mxPoint y="-1" as="offset" />
          </mxGeometry>
        </mxCell>
        <mxCell id="nKVs6_15rnYLYa3qSQOT-21" style="edgeStyle=orthogonalEdgeStyle;rounded=0;orthogonalLoop=1;jettySize=auto;html=1;exitX=0.75;exitY=1;exitDx=0;exitDy=0;entryX=0.75;entryY=0;entryDx=0;entryDy=0;" edge="1" parent="1" source="nKVs6_15rnYLYa3qSQOT-4" target="nKVs6_15rnYLYa3qSQOT-15">
          <mxGeometry relative="1" as="geometry" />
        </mxCell>
        <mxCell id="nKVs6_15rnYLYa3qSQOT-23" value="Pipeline Logs &amp;amp; Metrics" style="edgeLabel;html=1;align=center;verticalAlign=middle;resizable=0;points=[];" vertex="1" connectable="0" parent="nKVs6_15rnYLYa3qSQOT-21">
          <mxGeometry x="-0.7925" y="-2" relative="1" as="geometry">
            <mxPoint as="offset" />
          </mxGeometry>
        </mxCell>
        <mxCell id="nKVs6_15rnYLYa3qSQOT-22" value="&lt;font style=&quot;font-size: 18px; color: light-dark(rgb(66, 123, 243), rgb(237, 237, 237));&quot;&gt;&lt;b&gt;Daily Batch&lt;/b&gt;&lt;/font&gt;" style="text;strokeColor=none;align=center;fillColor=none;html=1;verticalAlign=middle;whiteSpace=wrap;rounded=0;" vertex="1" parent="1">
          <mxGeometry x="160" y="40" width="225" height="30" as="geometry" />
        </mxCell>
        <mxCell id="nKVs6_15rnYLYa3qSQOT-46" style="edgeStyle=orthogonalEdgeStyle;rounded=0;orthogonalLoop=1;jettySize=auto;html=1;exitX=0.5;exitY=1;exitDx=0;exitDy=0;entryX=0.5;entryY=0;entryDx=0;entryDy=0;" edge="1" parent="1" source="nKVs6_15rnYLYa3qSQOT-26" target="nKVs6_15rnYLYa3qSQOT-32">
          <mxGeometry relative="1" as="geometry" />
        </mxCell>
        <mxCell id="nKVs6_15rnYLYa3qSQOT-47" value="Alerting Policies" style="edgeLabel;html=1;align=center;verticalAlign=middle;resizable=0;points=[];" vertex="1" connectable="0" parent="nKVs6_15rnYLYa3qSQOT-46">
          <mxGeometry x="-0.2162" y="-1" relative="1" as="geometry">
            <mxPoint as="offset" />
          </mxGeometry>
        </mxCell>
        <mxCell id="nKVs6_15rnYLYa3qSQOT-61" style="edgeStyle=orthogonalEdgeStyle;rounded=0;orthogonalLoop=1;jettySize=auto;html=1;exitX=1;exitY=0.5;exitDx=0;exitDy=0;entryX=0;entryY=0.25;entryDx=0;entryDy=0;" edge="1" parent="1" source="nKVs6_15rnYLYa3qSQOT-26" target="nKVs6_15rnYLYa3qSQOT-30">
          <mxGeometry relative="1" as="geometry" />
        </mxCell>
        <mxCell id="nKVs6_15rnYLYa3qSQOT-26" value="" style="fillColor=#ffffff;strokeColor=#dddddd;shadow=1;strokeWidth=1;rounded=1;absoluteArcSize=1;arcSize=2;" vertex="1" parent="1">
          <mxGeometry x="600" y="550" width="130" height="60" as="geometry" />
        </mxCell>
        <mxCell id="nKVs6_15rnYLYa3qSQOT-27" value="Cloud&#xa;Monitoring" style="editableCssRules=.*;html=1;fontColor=#999999;shape=image;verticalLabelPosition=middle;verticalAlign=middle;labelPosition=right;align=left;spacingLeft=20;part=1;points=[];imageAspect=0;image=data:image/svg+xml,PHN2ZyB4bWxucz0iaHR0cDovL3d3dy53My5vcmcvMjAwMC9zdmciIHhtbG5zOnY9Imh0dHBzOi8vdmVjdGEuaW8vbmFubyIgd2lkdGg9IjIwIiBoZWlnaHQ9IjEzLjUyOTk5OTczMjk3MTE5MSIgdmlld0JveD0iLTIuOTMyMDk3ODk3ODEyMDE0ZS05IC01LjI1ODAxNTA0MTgzNzk1NmUtMTUgMjAgMTMuNTI5OTk5NzMyOTcxMTkxIj4mI3hhOwk8c3R5bGUgdHlwZT0idGV4dC9jc3MiPiYjeGE7CS5zdDB7ZmlsbDojNDI4NWY0O30mI3hhOwkuc3Qxe2ZpbGw6IzY2OWRmNjt9JiN4YTsJPC9zdHlsZT4mI3hhOwk8cGF0aCBjbGFzcz0ic3QxIiBkPSJNOC44MyAxMC41OGgyLjMzdjIuNjRIOC44M3oiLz4mI3hhOwk8cGF0aCBjbGFzcz0ic3QwIiBkPSJNMTYuNDggOC42MWEuNTYuNTYgMCAwIDEtLjQtLjE3TDEyIDQuMjEgOS4yNiA3LjFhLjU3LjU3IDAgMCAxLS43Ni4wNUw2LjQyIDUuNDdsLTIuMiAyLjkyYS41Ni41NiAwIDAgMS0uNDUuMjJIMHYxLjcxYS43NS43NSAwIDAgMCAuNzQuNzVoMTguNTJhLjc1Ljc1IDAgMCAwIC43NC0uNzVWOC42MXoiLz4mI3hhOwk8cGF0aCBjbGFzcz0ic3QxIiBkPSJNMy41IDcuNWwyLjM4LTMuMTZhLjU1LjU1IDAgMCAxIC4zNy0uMjIuNjMuNjMgMCAwIDEgLjQyLjEybDIuMTIgMS43MiAyLjgtMi45NGEuNTQuNTQgMCAwIDEgLjQtLjE3aDBhLjU0LjU0IDAgMCAxIC40LjE3bDQuMzMgNC40OEgyMFYuNzRhLjc0Ljc0IDAgMCAwLS43NC0uNzRILjc0QS43NC43NCAwIDAgMCAwIC43NHY2LjgxeiIvPiYjeGE7CTxyZWN0IGNsYXNzPSJzdDAiIHg9IjYuNjciIHk9IjEyLjkyIiB3aWR0aD0iNi42NyIgaGVpZ2h0PSIuNjEiIHJ4PSIuMyIvPiYjeGE7PC9zdmc+;" vertex="1" parent="nKVs6_15rnYLYa3qSQOT-26">
          <mxGeometry width="30" height="21" relative="1" as="geometry">
            <mxPoint x="15" y="19.5" as="offset" />
          </mxGeometry>
        </mxCell>
        <mxCell id="nKVs6_15rnYLYa3qSQOT-62" style="edgeStyle=orthogonalEdgeStyle;rounded=0;orthogonalLoop=1;jettySize=auto;html=1;exitX=0.5;exitY=1;exitDx=0;exitDy=0;entryX=1;entryY=0.5;entryDx=0;entryDy=0;" edge="1" parent="1" source="nKVs6_15rnYLYa3qSQOT-30" target="nKVs6_15rnYLYa3qSQOT-56">
          <mxGeometry relative="1" as="geometry" />
        </mxCell>
        <mxCell id="nKVs6_15rnYLYa3qSQOT-30" value="&lt;div&gt;&lt;b&gt;Metrics &amp;amp; Reports:&lt;/b&gt;&lt;/div&gt;&lt;div&gt;- Job Status (Success/ Fail)&lt;/div&gt;&lt;div&gt;- Job Run Time&lt;/div&gt;&lt;div&gt;- CPU &amp;amp; Memory Utilization&lt;/div&gt;&lt;div&gt;- Query Execution Time&lt;/div&gt;&lt;div&gt;- Bytes Scanned&lt;/div&gt;" style="rounded=0;whiteSpace=wrap;html=1;" vertex="1" parent="1">
          <mxGeometry x="800" y="553" width="150" height="110" as="geometry" />
        </mxCell>
        <mxCell id="nKVs6_15rnYLYa3qSQOT-32" value="" style="fillColor=#ffffff;strokeColor=#dddddd;shadow=1;strokeWidth=1;rounded=1;absoluteArcSize=1;arcSize=2;" vertex="1" parent="1">
          <mxGeometry x="595" y="665" width="140" height="60" as="geometry" />
        </mxCell>
        <mxCell id="nKVs6_15rnYLYa3qSQOT-33" value="&lt;font color=&quot;#000000&quot;&gt;Alerts Topic&lt;/font&gt;&lt;br&gt;Pub/Sub" style="editableCssRules=.*;html=1;fontColor=#999999;shape=image;verticalLabelPosition=middle;verticalAlign=middle;labelPosition=right;align=left;spacingLeft=20;part=1;points=[];imageAspect=0;image=data:image/svg+xml,PHN2ZyB4bWxucz0iaHR0cDovL3d3dy53My5vcmcvMjAwMC9zdmciIHhtbG5zOnY9Imh0dHBzOi8vdmVjdGEuaW8vbmFubyIgd2lkdGg9IjE4LjMxOTk5OTY5NDgyNDIyIiBoZWlnaHQ9IjIwLjAwMDAwMTkwNzM0ODYzMyIgdmlld0JveD0iMCAwIDE4LjMxOTk5OTY5NDgyNDIyIDIwLjAwMDAwMTkwNzM0ODYzMyI+JiN4YTsJPHN0eWxlIHR5cGU9InRleHQvY3NzIj4mI3hhOwkuc3Qwe2ZpbGw6IzY2OWRmNjt9JiN4YTsJLnN0MXtmaWxsOiM0Mjg1ZjQ7fSYjeGE7CS5zdDJ7ZmlsbDojYWVjYmZhO30mI3hhOwk8L3N0eWxlPiYjeGE7CTxkZWZzPiYjeGE7CQk8ZmlsdGVyIGlkPSJBIiB4PSI0LjY0IiB5PSI0LjE5IiB3aWR0aD0iMTQuNzMiIGhlaWdodD0iMTIuNzYiIGZpbHRlclVuaXRzPSJ1c2VyU3BhY2VPblVzZSIgY29sb3ItaW50ZXJwb2xhdGlvbi1maWx0ZXJzPSJzUkdCIj4mI3hhOwkJCTxmZUZsb29kIGZsb29kLWNvbG9yPSIjZmZmIi8+JiN4YTsJCQk8ZmVCbGVuZCBpbj0iU291cmNlR3JhcGhpYyIvPiYjeGE7CQk8L2ZpbHRlcj4mI3hhOwkJPG1hc2sgaWQ9IkIiIHg9IjQuNjQiIHk9IjQuMTkiIHdpZHRoPSIxNC43MyIgaGVpZ2h0PSIxMi43NiIgbWFza1VuaXRzPSJ1c2VyU3BhY2VPblVzZSI+JiN4YTsJCQk8Y2lyY2xlIGN4PSIxMiIgY3k9IjEyLjIzIiByPSIzLjU4IiBmaWx0ZXI9InVybCgjQSkiLz4mI3hhOwkJPC9tYXNrPiYjeGE7CTwvZGVmcz4mI3hhOwk8ZyBjbGFzcz0ic3QwIj4mI3hhOwkJPGNpcmNsZSBjeD0iMTYuMTMiIGN5PSI2LjIxIiByPSIxLjcyIi8+JiN4YTsJCTxjaXJjbGUgY3g9IjIuMTkiIGN5PSI2LjIxIiByPSIxLjcyIi8+JiN4YTsJCTxjaXJjbGUgY3g9IjkuMTYiIGN5PSIxOC4yOCIgcj0iMS43MiIvPiYjeGE7CTwvZz4mI3hhOwk8ZyBtYXNrPSJ1cmwoI0IpIiB0cmFuc2Zvcm09InRyYW5zbGF0ZSgtMi44NCAtMikiPiYjeGE7CQk8cGF0aCB0cmFuc2Zvcm09Im1hdHJpeCguNSAtLjg3IC44NyAuNSAtNC41OSAyMC41MykiIGQ9Ik0xNC42OSAxMC4yMmgxLjU5djguMDRoLTEuNTl6IiBjbGFzcz0ic3QxIi8+JiN4YTsJCTxwYXRoIHRyYW5zZm9ybT0icm90YXRlKDMzMCA4LjUyMyAxNC4yNDQpIiBkPSJNNC40OSAxMy40NWg4LjA0djEuNTlINC40OXoiIGNsYXNzPSJzdDEiLz4mI3hhOwkJPHBhdGggZD0iTTExLjIgNC4xOWgxLjU5djguMDRIMTEuMnoiIGNsYXNzPSJzdDEiLz4mI3hhOwk8L2c+JiN4YTsJPGcgY2xhc3M9InN0MiI+JiN4YTsJCTxjaXJjbGUgY3g9IjkuMTYiIGN5PSIxMC4yMyIgcj0iMi43OCIvPiYjeGE7CQk8Y2lyY2xlIGN4PSIyLjE5IiBjeT0iMTQuMjUiIHI9IjIuMTkiLz4mI3hhOwkJPGNpcmNsZSBjeD0iMTYuMTMiIGN5PSIxNC4yNSIgcj0iMi4xOSIvPiYjeGE7CQk8Y2lyY2xlIGN4PSI5LjE2IiBjeT0iMi4xOSIgcj0iMi4xOSIvPiYjeGE7CTwvZz4mI3hhOzwvc3ZnPg==;" vertex="1" parent="nKVs6_15rnYLYa3qSQOT-32">
          <mxGeometry width="27" height="30" relative="1" as="geometry">
            <mxPoint x="16.5" y="15" as="offset" />
          </mxGeometry>
        </mxCell>
        <mxCell id="nKVs6_15rnYLYa3qSQOT-37" value="" style="fillColor=#ffffff;strokeColor=#dddddd;shadow=1;strokeWidth=1;rounded=1;absoluteArcSize=1;arcSize=2;" vertex="1" parent="1">
          <mxGeometry x="589" y="770" width="180" height="60" as="geometry" />
        </mxCell>
        <mxCell id="nKVs6_15rnYLYa3qSQOT-38" value="&lt;font color=&quot;#000000&quot;&gt;Notification Sender&lt;/font&gt;&lt;br&gt;Cloud Functions" style="editableCssRules=.*;html=1;fontColor=#999999;shape=image;verticalLabelPosition=middle;verticalAlign=middle;labelPosition=right;align=left;spacingLeft=20;part=1;points=[];imageAspect=0;image=data:image/svg+xml,PHN2ZyB4bWxucz0iaHR0cDovL3d3dy53My5vcmcvMjAwMC9zdmciIHhtbG5zOnY9Imh0dHBzOi8vdmVjdGEuaW8vbmFubyIgd2lkdGg9IjIwIiBoZWlnaHQ9IjE5Ljk4OTk5OTc3MTExODE2NCIgdmlld0JveD0iMCAwIDIwIDE5Ljk4OTk5OTc3MTExODE2NCI+JiN4YTsJPHN0eWxlIHR5cGU9InRleHQvY3NzIj4mI3hhOwkuc3Qwe2ZpbGw6IzQyODVmNDt9JiN4YTsJLnN0MXtmaWxsOiM2NjlkZjY7fSYjeGE7CS5zdDJ7ZmlsbDojYWVjYmZhO30mI3hhOwk8L3N0eWxlPiYjeGE7CTxwYXRoIGNsYXNzPSJzdDEiIGQ9Ik0zIDMuOTlMMCA2LjQydjcuMTNsMyAyLjQ0eiIvPiYjeGE7CTxwYXRoIGNsYXNzPSJzdDAiIGQ9Ik0zIDMuOTlsLTMgNCAzLTJ6bS0zIDhsMyA0di0yeiIvPiYjeGE7CTxwYXRoIGNsYXNzPSJzdDIiIGQ9Ik0wIDE1Ljk5bDQgNCAyLTItNi02em0uMDEtOEw1Ljk5IDJsLTItMkwwIDMuOTl6Ii8+JiN4YTsJPHBhdGggY2xhc3M9InN0MSIgZD0iTTE3IDE2bDMtMi40MlY2LjQ0TDE3IDR6Ii8+JiN4YTsJPHBhdGggY2xhc3M9InN0MCIgZD0iTTE3IDE2bDMtNC0zIDJ6bTMtOGwtMy00djJ6Ii8+JiN4YTsJPGcgY2xhc3M9InN0MiI+JiN4YTsJCTxwYXRoIGQ9Ik0yMCA0bC00LTQtMiAyIDYgNnptLS4wMSA4bC01Ljk4IDUuOTkgMiAyTDIwIDE2eiIvPiYjeGE7CQk8Y2lyY2xlIGN4PSI2IiBjeT0iOS45OSIgcj0iMSIvPiYjeGE7CQk8Y2lyY2xlIGN4PSIxMCIgY3k9IjkuOTkiIHI9IjEiLz4mI3hhOwkJPGNpcmNsZSBjeD0iMTMuOTkiIGN5PSI5Ljk5IiByPSIxIi8+JiN4YTsJPC9nPiYjeGE7PC9zdmc+;" vertex="1" parent="nKVs6_15rnYLYa3qSQOT-37">
          <mxGeometry width="30" height="24" relative="1" as="geometry">
            <mxPoint x="15" y="18" as="offset" />
          </mxGeometry>
        </mxCell>
        <mxCell id="nKVs6_15rnYLYa3qSQOT-39" style="edgeStyle=orthogonalEdgeStyle;rounded=0;orthogonalLoop=1;jettySize=auto;html=1;exitX=1;exitY=0.5;exitDx=0;exitDy=0;entryX=0.25;entryY=0;entryDx=0;entryDy=0;" edge="1" parent="1" source="nKVs6_15rnYLYa3qSQOT-6" target="nKVs6_15rnYLYa3qSQOT-15">
          <mxGeometry relative="1" as="geometry" />
        </mxCell>
        <mxCell id="nKVs6_15rnYLYa3qSQOT-65" value="Pipeline Logs &amp;amp; Metrics" style="edgeLabel;html=1;align=center;verticalAlign=middle;resizable=0;points=[];" vertex="1" connectable="0" parent="nKVs6_15rnYLYa3qSQOT-39">
          <mxGeometry x="-0.4952" y="-3" relative="1" as="geometry">
            <mxPoint x="-7" y="4" as="offset" />
          </mxGeometry>
        </mxCell>
        <mxCell id="nKVs6_15rnYLYa3qSQOT-40" value="" style="fillColor=#ffffff;strokeColor=#dddddd;shadow=1;strokeWidth=1;rounded=1;absoluteArcSize=1;arcSize=2;" vertex="1" parent="1">
          <mxGeometry x="387" y="667" width="150" height="60" as="geometry" />
        </mxCell>
        <mxCell id="nKVs6_15rnYLYa3qSQOT-41" value="&lt;font color=&quot;#000000&quot;&gt;Log Bucket&lt;/font&gt;&lt;br&gt;Cloud Storage" style="editableCssRules=.*;html=1;fontColor=#999999;shape=image;verticalLabelPosition=middle;verticalAlign=middle;labelPosition=right;align=left;spacingLeft=20;part=1;points=[];imageAspect=0;image=data:image/svg+xml,PHN2ZyB4bWxucz0iaHR0cDovL3d3dy53My5vcmcvMjAwMC9zdmciIHhtbG5zOnY9Imh0dHBzOi8vdmVjdGEuaW8vbmFubyIgd2lkdGg9IjIwIiBoZWlnaHQ9IjE2IiB2aWV3Qm94PSIwIDAgMjAgMTYiPiYjeGE7CTxzdHlsZSB0eXBlPSJ0ZXh0L2NzcyI+JiN4YTsJLnN0MHtmaWxsOiM0Mjg1ZjQ7fSYjeGE7CS5zdDF7ZmlsbDojNjY5ZGY2O30mI3hhOwkuc3Qye2ZpbGw6I2FlY2JmYTt9JiN4YTsJLnN0M3tmaWxsOiNmZmY7fSYjeGE7CTwvc3R5bGU+JiN4YTsJPHBhdGggY2xhc3M9InN0MiIgZD0iTTAgMGgyMHY3SDB6Ii8+JiN4YTsJPHBhdGggY2xhc3M9InN0MSIgZD0iTTE4IDBoMnY3aC0yeiIvPiYjeGE7CTxwYXRoIGNsYXNzPSJzdDAiIGQ9Ik0xOCA3bDItN2gtMnoiLz4mI3hhOwk8cGF0aCBjbGFzcz0ic3QxIiBkPSJNMCAwaDJ2N0gweiIvPiYjeGE7CTxnIGNsYXNzPSJzdDMiPiYjeGE7CQk8cGF0aCBkPSJNNCAzaDZ2MUg0eiIvPiYjeGE7CQk8cmVjdCB4PSIxMyIgeT0iMiIgd2lkdGg9IjMiIGhlaWdodD0iMyIgcng9IjEuNSIvPiYjeGE7CTwvZz4mI3hhOwk8cGF0aCBjbGFzcz0ic3QyIiBkPSJNMCA5aDIwdjdIMHoiLz4mI3hhOwk8cGF0aCBjbGFzcz0ic3QxIiBkPSJNMTggOWgydjdoLTJ6Ii8+JiN4YTsJPHBhdGggY2xhc3M9InN0MCIgZD0iTTE4IDE2bDItN2gtMnoiLz4mI3hhOwk8cGF0aCBjbGFzcz0ic3QxIiBkPSJNMCA5aDJ2N0gweiIvPiYjeGE7CTxnIGNsYXNzPSJzdDMiPiYjeGE7CQk8cGF0aCBkPSJNNCAxMmg2djFINHoiLz4mI3hhOwkJPHJlY3QgeD0iMTMiIHk9IjExIiB3aWR0aD0iMyIgaGVpZ2h0PSIzIiByeD0iMS41Ii8+JiN4YTsJPC9nPiYjeGE7PC9zdmc+;" vertex="1" parent="nKVs6_15rnYLYa3qSQOT-40">
          <mxGeometry width="30" height="24" relative="1" as="geometry">
            <mxPoint x="15" y="18" as="offset" />
          </mxGeometry>
        </mxCell>
        <mxCell id="nKVs6_15rnYLYa3qSQOT-43" style="edgeStyle=orthogonalEdgeStyle;rounded=0;orthogonalLoop=1;jettySize=auto;html=1;exitX=0.75;exitY=1;exitDx=0;exitDy=0;entryX=0.154;entryY=-0.065;entryDx=0;entryDy=0;entryPerimeter=0;" edge="1" parent="1" source="nKVs6_15rnYLYa3qSQOT-15" target="nKVs6_15rnYLYa3qSQOT-40">
          <mxGeometry relative="1" as="geometry" />
        </mxCell>
        <mxCell id="nKVs6_15rnYLYa3qSQOT-44" value="Long-Term Archival" style="edgeLabel;html=1;align=center;verticalAlign=middle;resizable=0;points=[];" vertex="1" connectable="0" parent="nKVs6_15rnYLYa3qSQOT-43">
          <mxGeometry x="-0.2385" y="-2" relative="1" as="geometry">
            <mxPoint as="offset" />
          </mxGeometry>
        </mxCell>
        <mxCell id="nKVs6_15rnYLYa3qSQOT-49" style="edgeStyle=orthogonalEdgeStyle;rounded=0;orthogonalLoop=1;jettySize=auto;html=1;exitX=0.5;exitY=1;exitDx=0;exitDy=0;entryX=0.422;entryY=-0.033;entryDx=0;entryDy=0;entryPerimeter=0;" edge="1" parent="1" source="nKVs6_15rnYLYa3qSQOT-32" target="nKVs6_15rnYLYa3qSQOT-37">
          <mxGeometry relative="1" as="geometry" />
        </mxCell>
        <mxCell id="nKVs6_15rnYLYa3qSQOT-50" value="Trigger" style="edgeLabel;html=1;align=center;verticalAlign=middle;resizable=0;points=[];" vertex="1" connectable="0" parent="nKVs6_15rnYLYa3qSQOT-49">
          <mxGeometry x="-0.1993" y="-1" relative="1" as="geometry">
            <mxPoint as="offset" />
          </mxGeometry>
        </mxCell>
        <mxCell id="nKVs6_15rnYLYa3qSQOT-59" style="edgeStyle=orthogonalEdgeStyle;rounded=0;orthogonalLoop=1;jettySize=auto;html=1;exitX=0.5;exitY=1;exitDx=0;exitDy=0;entryX=0;entryY=0.5;entryDx=0;entryDy=0;" edge="1" parent="1" source="nKVs6_15rnYLYa3qSQOT-51" target="nKVs6_15rnYLYa3qSQOT-56">
          <mxGeometry relative="1" as="geometry" />
        </mxCell>
        <mxCell id="nKVs6_15rnYLYa3qSQOT-51" value="&lt;div&gt;&lt;b&gt;Data Quality Reports:&lt;/b&gt;&lt;/div&gt;&lt;div&gt;- DQ Violation Summary&lt;/div&gt;&lt;div&gt;- DQ Violation Trend&lt;/div&gt;&lt;div&gt;- Failed Job Breakdown&lt;/div&gt;&lt;div&gt;- Ingested Record Count&lt;/div&gt;" style="rounded=0;whiteSpace=wrap;html=1;" vertex="1" parent="1">
          <mxGeometry x="218" y="790" width="158" height="95" as="geometry" />
        </mxCell>
        <mxCell id="nKVs6_15rnYLYa3qSQOT-58" style="edgeStyle=orthogonalEdgeStyle;rounded=0;orthogonalLoop=1;jettySize=auto;html=1;exitX=0.5;exitY=1;exitDx=0;exitDy=0;entryX=0.5;entryY=0;entryDx=0;entryDy=0;" edge="1" parent="1" source="nKVs6_15rnYLYa3qSQOT-52" target="nKVs6_15rnYLYa3qSQOT-51">
          <mxGeometry relative="1" as="geometry" />
        </mxCell>
        <mxCell id="nKVs6_15rnYLYa3qSQOT-52" value="" style="fillColor=#ffffff;strokeColor=#dddddd;shadow=1;strokeWidth=1;rounded=1;absoluteArcSize=1;arcSize=2;" vertex="1" parent="1">
          <mxGeometry x="232" y="670" width="130" height="60" as="geometry" />
        </mxCell>
        <mxCell id="nKVs6_15rnYLYa3qSQOT-53" value="&lt;font color=&quot;#000000&quot;&gt;Log Table&lt;/font&gt;&lt;br&gt;BigQuery" style="editableCssRules=.*;html=1;fontColor=#999999;shape=image;verticalLabelPosition=middle;verticalAlign=middle;labelPosition=right;align=left;spacingLeft=20;part=1;points=[];imageAspect=0;image=data:image/svg+xml,PHN2ZyB4bWxucz0iaHR0cDovL3d3dy53My5vcmcvMjAwMC9zdmciIHhtbG5zOnY9Imh0dHBzOi8vdmVjdGEuaW8vbmFubyIgd2lkdGg9IjIwLjAwMTA0NTIyNzA1MDc4IiBoZWlnaHQ9IjIwLjAwMTA0NTIyNzA1MDc4IiBmaWxsLXJ1bGU9ImV2ZW5vZGQiIHZpZXdCb3g9IjAgMCAyMC4wMDEwNDUyMjcwNTA3OCAyMC4wMDEwNDUyMjcwNTA3OCI+JiN4YTsJPHN0eWxlIHR5cGU9InRleHQvY3NzIj4mI3hhOwkuc3Qwe2ZpbGw6I2FlY2JmYTt9JiN4YTsJLnN0MXtmaWxsOiM2NjlkZjY7fSYjeGE7CS5zdDJ7ZmlsbDojNDI4NWY0O30mI3hhOwk8L3N0eWxlPiYjeGE7CTxwYXRoIGNsYXNzPSJzdDAiIGQ9Ik00LjczIDguODN2Mi42M2E0LjkxIDQuOTEgMCAwIDAgMS43MSAxLjc0VjguODN6Ii8+JiN4YTsJPHBhdGggY2xhc3M9InN0MSIgZD0iTTcuODkgNi40MXY3LjUzQTcuNjIgNy42MiAwIDAgMCA5IDE0YTggOCAwIDAgMCAxIDBWNi40MXoiLz4mI3hhOwk8cGF0aCBjbGFzcz0ic3QwIiBkPSJNMTEuNjQgOS44NnYzLjI5YTUgNSAwIDAgMCAxLjctMS44MlY5Ljg2eiIvPiYjeGE7CTxwYXRoIGNsYXNzPSJzdDIiIGQ9Ik0xNS43NCAxNC4zMmwtMS40MiAxLjQyYS40Mi40MiAwIDAgMCAwIC42bDMuNTQgMy41NGEuNDIuNDIgMCAwIDAgLjU5IDBsMS40My0xLjQzYS40Mi40MiAwIDAgMCAwLS41OWwtMy41NC0zLjU0YS40Mi40MiAwIDAgMC0uNiAwIi8+JiN4YTsJPHBhdGggY2xhc3M9InN0MSIgZD0iTTkgMGE5IDkgMCAxIDAgMCAxOEE5IDkgMCAxIDAgOSAwbTAgMTUuNjlhNi42OCA2LjY4IDAgMCAxIC4wMDctMTMuMzYgNi42OCA2LjY4IDAgMCAxIDQuNzI3IDExLjQwM0E2LjY4IDYuNjggMCAwIDEgOSAxNS42OSIvPiYjeGE7PC9zdmc+;" vertex="1" parent="nKVs6_15rnYLYa3qSQOT-52">
          <mxGeometry width="30" height="30" relative="1" as="geometry">
            <mxPoint x="15" y="15" as="offset" />
          </mxGeometry>
        </mxCell>
        <mxCell id="nKVs6_15rnYLYa3qSQOT-56" value="Data Operations Team" style="rounded=0;whiteSpace=wrap;html=1;" vertex="1" parent="1">
          <mxGeometry x="516" y="885" width="170" height="60" as="geometry" />
        </mxCell>
        <mxCell id="nKVs6_15rnYLYa3qSQOT-60" style="edgeStyle=orthogonalEdgeStyle;rounded=0;orthogonalLoop=1;jettySize=auto;html=1;exitX=0.25;exitY=1;exitDx=0;exitDy=0;entryX=0.692;entryY=0.035;entryDx=0;entryDy=0;entryPerimeter=0;" edge="1" parent="1" source="nKVs6_15rnYLYa3qSQOT-37" target="nKVs6_15rnYLYa3qSQOT-56">
          <mxGeometry relative="1" as="geometry" />
        </mxCell>
        <mxCell id="nKVs6_15rnYLYa3qSQOT-63" value="Send Notification" style="edgeLabel;html=1;align=center;verticalAlign=middle;resizable=0;points=[];" vertex="1" connectable="0" parent="nKVs6_15rnYLYa3qSQOT-60">
          <mxGeometry x="-0.1288" y="-2" relative="1" as="geometry">
            <mxPoint y="-1" as="offset" />
          </mxGeometry>
        </mxCell>
        <mxCell id="nKVs6_15rnYLYa3qSQOT-64" value="&lt;font style=&quot;font-size: 18px; color: light-dark(rgb(66, 123, 243), rgb(237, 237, 237));&quot;&gt;&lt;b&gt;Logging &amp;amp; Monitoring&lt;/b&gt;&lt;/font&gt;" style="text;strokeColor=none;align=center;fillColor=none;html=1;verticalAlign=middle;whiteSpace=wrap;rounded=0;" vertex="1" parent="1">
          <mxGeometry x="765" y="494" width="225" height="30" as="geometry" />
        </mxCell>
      </root>
    </mxGraphModel>
  </diagram>
</mxfile>
